<svg xmlns="http://www.w3.org/2000/svg" width="164" height="100" viewBox="-82 -96 164 100">
<g transform="scale(1.6) translate(-50 -62)"><ellipse cx="50" cy="44" rx="40" ry="18" fill="#ffb366" stroke="#c97a35" stroke-width="3.5"/><path d="M36 30 Q40 44 34 58 M52 27 Q56 42 50 61 M68 30 Q70 42 66 58" fill="none" stroke="#e8914a" stroke-width="4" stroke-linecap="round"/><path d="M64 28 L68 12 L76 24 Z M80 26 L88 12 L90 28 Z" fill="#ffb366" stroke="#c97a35" stroke-width="3" stroke-linejoin="round"/><path d="M68 22 L69 17 L73 22 Z M82 23 L86 17 L87 24 Z" fill="#ffc2d1"/><circle cx="78" cy="38" r="16" fill="#ffb366" stroke="#c97a35" stroke-width="3.5"/><path d="M70 38 Q73 41 76 38 M82 38 Q85 41 88 38" fill="none" stroke="#5a3e2b" stroke-width="2.2" stroke-linecap="round"/><ellipse cx="80" cy="45" rx="2.2" ry="1.6" fill="#ff8fa3"/><ellipse cx="68" cy="46" rx="4" ry="2.4" fill="#ffc2d1" opacity="0.7"/></g>
</svg>
