<svg xmlns="http://www.w3.org/2000/svg" width="200" height="200" viewBox="0 0 200 200">

<rect x="32" y="70" width="10" height="110" fill="#a8673d"/><rect x="158" y="70" width="10" height="110" fill="#a8673d"/>
<path d="M18 44 L100 18 L182 44 Z" fill="#e8453c" stroke="#b02e27" stroke-width="4" stroke-linejoin="round"/>
<path d="M25 42 L55 42 L55 76 Q40 92 25 76 Z" fill="#e8453c" stroke="#b02e27" stroke-width="3"/><path d="M55 42 L85 42 L85 76 Q70 92 55 76 Z" fill="#ffffff" stroke="#b02e27" stroke-width="3"/><path d="M85 42 L115 42 L115 76 Q100 92 85 76 Z" fill="#e8453c" stroke="#b02e27" stroke-width="3"/><path d="M115 42 L145 42 L145 76 Q130 92 115 76 Z" fill="#ffffff" stroke="#b02e27" stroke-width="3"/><path d="M145 42 L175 42 L175 76 Q160 92 145 76 Z" fill="#e8453c" stroke="#b02e27" stroke-width="3"/>
<rect x="22" y="128" width="156" height="56" rx="6" fill="#c98a52" stroke="#8a5a36" stroke-width="5"/>
<line x1="22" y1="156" x2="178" y2="156" stroke="#8a5a36" stroke-width="4"/>
<circle cx="52" cy="118" r="16" fill="#e8453c"/><circle cx="82" cy="114" r="18" fill="#ff9f1c"/>
<circle cx="116" cy="118" r="16" fill="#8bc34a"/><circle cx="148" cy="116" r="17" fill="#e8453c"/>
<circle cx="66" cy="104" r="14" fill="#ffd23f"/><circle cx="132" cy="102" r="14" fill="#ff9f1c"/>
<path d="M52 102 L54 94 M148 99 L150 91" stroke="#5d3b1f" stroke-width="3" stroke-linecap="round"/>

</svg>
