<svg xmlns="http://www.w3.org/2000/svg" width="200" height="200" viewBox="0 0 200 200">

<ellipse cx="104" cy="138" rx="88" ry="46" fill="#5bb8ea" stroke="#3a8fc4" stroke-width="6"/>
<path d="M50 140 Q62 132 74 140 M130 158 Q142 150 154 158 M60 160 Q70 154 80 160" fill="none" stroke="#ffffff" stroke-width="4" stroke-linecap="round"/>
<path d="M22 150 L22 64 M36 154 L38 80" stroke="#4c9a38" stroke-width="5" stroke-linecap="round"/>
<rect x="15" y="54" width="14" height="34" rx="7" fill="#8a5a36"/><rect x="31" y="70" width="14" height="30" rx="7" fill="#8a5a36"/>
<ellipse cx="112" cy="122" rx="40" ry="24" fill="#ffd23f" stroke="#d9a400" stroke-width="5"/>
<path d="M80 114 Q70 100 82 102 Q86 108 92 112 Z" fill="#ffd23f" stroke="#d9a400" stroke-width="4"/>
<circle cx="138" cy="90" r="20" fill="#ffd23f" stroke="#d9a400" stroke-width="5"/>
<path d="M154 90 L174 95 L154 102 Z" fill="#f08c1a" stroke="#c96c0d" stroke-width="3" stroke-linejoin="round"/>
<circle cx="144" cy="86" r="4.5" fill="#3a2a22"/>
<path d="M98 122 Q112 134 126 120" fill="none" stroke="#d9a400" stroke-width="4" stroke-linecap="round"/>

</svg>
